<?xml version="1.0" standalone="no"?>
<!DOCTYPE svg PUBLIC "-//W3C//DTD SVG 20010904//EN"
 "http://www.w3.org/TR/2001/REC-SVG-20010904/DTD/svg10.dtd">
<svg version="1.0" xmlns="http://www.w3.org/2000/svg"
 width="96.000000pt" height="96.000000pt" viewBox="0 0 96.000000 96.000000"
 preserveAspectRatio="xMidYMid meet">

<g transform="translate(0.000000,96.000000) scale(0.100000,-0.100000)"
fill="#000000" stroke="none">
<path d="M240 857 c0 -13 16 -38 38 -60 l38 -37 202 0 202 0 0 60 0 60 -240 0
-240 0 0 -23z"/>
<path d="M80 815 l-24 -26 132 -132 132 -132 0 -223 0 -222 160 0 160 0 0 62
0 62 75 -74 75 -75 27 28 28 27 -365 365 c-201 201 -368 365 -371 365 -3 0
-16 -11 -29 -25z"/>
<path d="M515 560 l120 -121 3 42 c2 29 16 60 43 100 67 99 67 99 -123 99
l-163 0 120 -120z"/>
</g>
</svg>
