<?xml version="1.0" encoding="utf-8"?>
<!-- Generator: Adobe Illustrator 16.0.0, SVG Export Plug-In . SVG Version: 6.00 Build 0)  -->
<!DOCTYPE svg PUBLIC "-//W3C//DTD SVG 1.1//EN" "http://www.w3.org/Graphics/SVG/1.1/DTD/svg11.dtd">
<svg version="1.1" id="Layer_1" xmlns="http://www.w3.org/2000/svg" xmlns:xlink="http://www.w3.org/1999/xlink" x="0px" y="0px"
	 width="272px" height="302px" viewBox="-16 0 272 302" enable-background="new -16 0 272 302" xml:space="preserve">
<g>
	<path fill="#27346A" d="M217.168,23.507C203.234,7.625,178.045,0.816,145.823,0.816h-93.52c-6.593,0-12.195,4.794-13.227,11.295
		L0.136,259.076c-0.774,4.87,2.997,9.281,7.933,9.281h57.735l14.5-91.972l-0.45,2.88c1.032-6.501,6.593-11.295,13.177-11.295h27.436
		c53.898,0,96.101-21.893,108.428-85.222c0.367-1.873,0.684-3.696,0.958-5.477c-1.557-0.824-1.557-0.824,0,0
		C233.525,53.865,229.829,37.933,217.168,23.507"/>
	<path fill="#27346A" d="M102.397,68.84c1.54-0.733,3.255-1.141,5.053-1.141h73.318c8.682,0,16.781,0.566,24.182,1.756
		c2.122,0.341,4.178,0.732,6.176,1.182c1.998,0.441,3.938,0.94,5.818,1.49c0.941,0.275,1.865,0.558,2.772,0.857
		c3.638,1.215,7.025,2.63,10.139,4.287c3.671-23.416-0.025-39.339-12.687-53.765C203.226,7.625,178.045,0.816,145.823,0.816H52.295
		c-6.584,0-12.187,4.794-13.219,11.295L0.136,259.068c-0.774,4.878,2.997,9.281,7.925,9.281h57.744L95.888,77.58
		C96.503,73.667,99.018,70.463,102.397,68.84z"/>
	<path fill="#2790C3" d="M228.896,82.749c-12.327,63.321-54.53,85.222-108.428,85.222H93.024c-6.584,0-12.145,4.794-13.168,11.295
		L61.817,293.621c-0.674,4.262,2.622,8.125,6.934,8.125h48.67c5.76,0,10.663-4.195,11.562-9.881l0.475-2.48l9.172-58.135
		l0.592-3.214c0.898-5.685,5.802-9.88,11.562-9.88h7.283c47.146,0,84.064-19.154,94.852-74.55
		c4.504-23.149,2.173-42.478-9.738-56.054c-3.613-4.112-8.1-7.508-13.327-10.28C229.571,79.062,229.264,80.876,228.896,82.749
		L228.896,82.749z"/>
	<path fill="#1F264F" d="M216.952,72.127c-1.882-0.549-3.821-1.049-5.818-1.49c-1.998-0.441-4.062-0.833-6.177-1.174
		c-7.408-1.199-15.499-1.765-24.189-1.765h-73.31c-1.806,0-3.521,0.408-5.053,1.148c-3.388,1.624-5.894,4.82-6.509,8.74
		l-15.583,98.798l-0.45,2.88c1.024-6.501,6.584-11.295,13.168-11.295h27.444c53.898,0,96.102-21.893,108.429-85.222
		c0.366-1.873,0.675-3.688,0.958-5.477c-3.122-1.648-6.502-3.072-10.139-4.279C218.816,72.693,217.893,72.402,216.952,72.127"/>
</g>
</svg>
