<?xml version="1.0" standalone="no"?>
<!DOCTYPE svg PUBLIC "-//W3C//DTD SVG 20010904//EN"
 "http://www.w3.org/TR/2001/REC-SVG-20010904/DTD/svg10.dtd">
<svg version="1.0" xmlns="http://www.w3.org/2000/svg"
 width="96.000000pt" height="96.000000pt" viewBox="0 0 96.000000 96.000000"
 preserveAspectRatio="xMidYMid meet">

<g transform="translate(0.000000,96.000000) scale(0.100000,-0.100000)"
fill="#000000" stroke="none">
<path d="M240 820 l0 -60 240 0 240 0 0 60 0 60 -240 0 -240 0 0 -60z"/>
<path d="M240 659 c0 -11 18 -47 40 -79 l40 -59 0 -220 0 -221 160 0 160 0 0
221 0 220 40 59 c71 104 79 100 -200 100 -235 0 -240 0 -240 -21z m280 -219
c11 -11 20 -29 20 -40 0 -26 -34 -60 -60 -60 -11 0 -29 9 -40 20 -11 11 -20
29 -20 40 0 11 9 29 20 40 11 11 29 20 40 20 11 0 29 -9 40 -20z"/>
</g>
</svg>
