<?xml version="1.0" standalone="no"?>
<!DOCTYPE svg PUBLIC "-//W3C//DTD SVG 20010904//EN"
 "http://www.w3.org/TR/2001/REC-SVG-20010904/DTD/svg10.dtd">
<svg version="1.0" xmlns="http://www.w3.org/2000/svg"
 width="96.000000pt" height="96.000000pt" viewBox="0 0 96.000000 96.000000"
 preserveAspectRatio="xMidYMid meet">

<g transform="translate(0.000000,96.000000) scale(0.100000,-0.100000)"
fill="#000000" stroke="none">
<path d="M80 480 l0 -400 400 0 400 0 0 43 0 42 -358 358 -357 357 -43 0 -42
0 0 -400z m160 -27 l0 -213 213 0 213 0 39 -40 39 -40 -292 0 -292 0 0 292 0
292 40 -39 40 -39 0 -213z m150 29 c0 -46 46 -92 92 -92 26 0 42 -9 68 -35
l34 -35 -132 0 -132 0 0 132 0 132 35 -34 c26 -26 35 -42 35 -68z"/>
<path d="M295 840 l39 -40 233 0 233 0 0 -233 0 -233 40 -39 40 -39 0 312 0
312 -312 0 -312 0 39 -40z"/>
<path d="M455 680 c39 -39 40 -40 112 -40 l73 0 0 -73 c0 -72 1 -73 40 -112
l40 -39 0 152 0 152 -152 0 -152 0 39 -40z"/>
</g>
</svg>
