<?xml version="1.0" standalone="no"?>
<!DOCTYPE svg PUBLIC "-//W3C//DTD SVG 20010904//EN"
 "http://www.w3.org/TR/2001/REC-SVG-20010904/DTD/svg10.dtd">
<svg version="1.0" xmlns="http://www.w3.org/2000/svg"
 width="270.000000pt" height="270.000000pt" viewBox="0 0 270.000000 270.000000"
 preserveAspectRatio="xMidYMid meet">

<g transform="translate(0.000000,260.000000) scale(0.100000,-0.100000)"
fill="#000000" stroke="none">
<path d="M1337 2527 c-53 -17 -106 -63 -128 -111 -30 -65 -24 -125 25 -276 25
-74 44 -135 43 -135 -1 0 -20 -10 -43 -22 l-41 -22 4 22 c6 31 -22 149 -47
197 -11 22 -59 81 -105 130 -50 52 -85 98 -85 110 0 27 -11 25 -42 -7 -43 -46
-62 -94 -62 -153 0 -85 25 -123 160 -239 21 -19 58 -51 81 -72 l42 -38 -22
-41 c-12 -22 -24 -40 -27 -40 -3 0 -18 23 -35 51 -16 28 -50 69 -75 91 -66 59
-86 68 -272 122 -32 9 -62 25 -68 34 -8 15 -11 15 -20 2 -34 -52 -18 -163 32
-224 49 -59 60 -63 361 -126 l57 -11 0 -50 0 -50 -27 18 c-104 70 -237 91
-358 58 -33 -9 -69 -19 -80 -22 -51 -13 -76 -14 -90 -3 -25 20 -28 5 -11 -46
21 -63 59 -110 109 -135 60 -31 139 -21 317 38 l146 48 21 -41 22 -41 -67 -2
c-132 -4 -213 -42 -339 -163 -69 -66 -87 -78 -105 -72 -21 6 -22 6 -7 -17 9
-13 35 -37 58 -54 38 -27 51 -30 114 -30 94 0 111 11 249 166 61 68 114 125
118 127 3 1 19 -22 34 -52 26 -51 32 -94 27 -186 -1 -24 -4 -25 -68 -25 -113
0 -128 -11 -409 -311 -137 -146 -254 -275 -261 -287 -17 -30 -16 -92 2 -127
16 -30 395 -312 495 -368 30 -17 90 -43 133 -57 73 -24 90 -26 240 -24 182 2
290 21 367 66 50 29 233 204 371 355 l89 98 0 124 c0 69 4 127 9 130 10 7 111
182 111 194 0 4 -24 32 -54 61 -43 43 -59 52 -82 49 -25 -3 -35 -15 -79 -95
l-50 -92 -80 -42 c-119 -62 -125 -66 -125 -97 0 -20 14 -42 53 -80 29 -29 60
-52 69 -52 17 0 28 -29 27 -70 0 -20 -24 -43 -123 -117 -67 -51 -125 -93 -129
-93 -3 0 -4 6 -1 13 2 7 0 114 -5 237 -10 221 -10 224 -41 287 -17 34 -58 91
-91 125 l-59 63 22 117 22 118 51 0 c75 0 97 30 115 158 8 57 7 69 -8 85 -13
15 -17 39 -17 116 -1 56 -6 105 -13 118 -17 30 -17 30 32 31 58 0 149 27 195
57 20 13 71 57 115 99 53 51 87 76 102 76 13 0 24 4 24 8 0 17 -57 62 -104 83
-88 39 -177 14 -251 -70 -47 -53 -142 -160 -160 -179 -10 -12 -20 -9 -54 13
l-41 28 43 27 c85 55 147 145 176 259 6 22 16 59 21 81 6 22 20 49 32 60 12
11 19 23 15 26 -3 4 -37 9 -75 12 -78 5 -125 -13 -180 -69 -38 -39 -44 -57
-80 -230 -22 -102 -32 -133 -43 -130 -8 2 -27 3 -43 2 -24 -1 -27 1 -21 16 52
121 57 204 19 343 -16 60 -23 107 -19 128 7 35 6 35 -48 19z m850 -1449 l52
-52 -41 -75 c-61 -113 -54 -109 -114 -50 l-53 53 47 88 c26 48 49 88 52 88 2
0 28 -23 57 -52z m66 -26 c18 -20 18 -22 -35 -116 -29 -53 -56 -96 -60 -96 -3
0 16 39 43 88 27 48 49 91 49 97 0 5 -21 32 -47 59 -48 49 -48 49 -8 19 22
-17 48 -40 58 -51z m-222 -159 c29 -33 30 -34 3 -10 -16 15 -35 27 -41 27 -10
0 -82 -37 -132 -67 l-23 -15 38 -39 c21 -21 34 -39 28 -39 -12 0 -90 78 -83
84 3 2 171 95 175 96 0 0 16 -17 35 -37z m-101 -183 c11 0 11 -3 2 -12 -14
-14 -37 5 -85 67 -30 40 -30 40 19 -7 27 -27 56 -48 64 -48z m-945 -210 c18
-96 32 -176 31 -177 -1 -1 -65 61 -143 138 l-141 141 101 75 102 75 8 -39 c4
-21 23 -117 42 -213z"/>
<path d="M2117 1089 c-31 -52 -67 -122 -67 -133 0 -7 18 -30 41 -51 39 -39 41
-40 55 -20 9 11 29 47 46 79 l30 59 -45 45 -45 45 -15 -24z"/>
</g>
</svg>
